<?xml version="1.0" encoding="UTF-8"?>
<svg width="110px" height="13px" viewBox="0 0 110 13" version="1.1" xmlns="http://www.w3.org/2000/svg" xmlns:xlink="http://www.w3.org/1999/xlink">
    <!-- Generator: Sketch 48.1 (47250) - http://www.bohemiancoding.com/sketch -->
    <title>Group</title>
    <desc>Created with Sketch.</desc>
    <defs></defs>
    <g id="1024" stroke="none" stroke-width="1" fill="none" fill-rule="evenodd" transform="translate(-682.000000, -384.000000)">
        <g id="Ticket" transform="translate(354.000000, 345.000000)" fill="#D2D5D6">
            <g id="Group" transform="translate(328.000000, 39.000000)">
                <rect id="Rectangle-2" x="0" y="6" width="96" height="1"></rect>
                <g id="ic_airplanemode_active_black_24px" transform="translate(104.000000, 6.500000) rotate(-270.000000) translate(-104.000000, -6.500000) translate(97.500000, -0.500000)" fill-rule="nonzero">
                    <path d="M13,10.1 L13,8.8 L7.52631579,5.55 L7.52631579,1.975 C7.52631579,1.4355 7.06789474,1 6.5,1 C5.93210526,1 5.47368421,1.4355 5.47368421,1.975 L5.47368421,5.55 L0,8.8 L0,10.1 L5.47368421,8.475 L5.47368421,12.05 L4.10526316,13.025 L4.10526316,14 L6.5,13.35 L8.89473684,14 L8.89473684,13.025 L7.52631579,12.05 L7.52631579,8.475 L13,10.1 Z" id="Shape"></path>
                </g>
            </g>
        </g>
    </g>
</svg>